# WaveFront *.obj file (generated by Autodesk ATF)

mtllib 4b372e27-b5ad-4d51-823e-165cf1b9d08b.mtl

g Body1

v 5.000000 50.000000 0.000000
v 5.000000 50.000000 25.000000
v 5.000000 45.000000 25.000000
v 5.000000 45.000000 0.000000
v 45.000000 50.000000 25.000000
v 45.000000 45.000000 25.000000
v 45.000000 50.000000 0.000000
v 45.000000 45.000000 0.000000
v 45.000000 50.000000 30.000000
v 25.000000 50.000000 40.000000
v 5.000000 50.000000 30.000000
v 0.000000 50.000000 0.000000
v 0.000000 50.000000 30.000000
v 25.000000 50.000000 45.000000
v 50.000000 50.000000 30.000000
v 50.000000 50.000000 0.000000
v 45.000000 5.000000 0.000000
v 45.000000 5.000000 25.000000
v 5.000000 5.000000 25.000000
v 5.000000 5.000000 0.000000
v 5.000000 0.000000 25.000000
v 5.000000 0.000000 0.000000
v 45.000000 0.000000 25.000000
v 25.000000 0.000000 40.000000
v 5.000000 0.000000 30.000000
v 45.000000 0.000000 30.000000
v 45.000000 0.000000 0.000000
v 50.000000 0.000000 0.000000
v 0.000000 0.000000 0.000000
v 2.375118 55.000000 36.425071
v 0.755520 55.000000 35.642017
v -0.978168 55.000000 35.161814
v -2.769840 55.000000 35.000000
v -2.769840 -5.000000 35.000000
v -0.978168 -5.000000 35.161814
v 0.755520 -5.000000 35.642017
v 2.375118 -5.000000 36.425071
v -5.000000 55.000000 35.000000
v -5.000000 -5.000000 35.000000
v 47.624882 -5.000000 36.425071
v 49.244480 -5.000000 35.642017
v 50.978168 -5.000000 35.161814
v 52.769840 -5.000000 35.000000
v 52.769840 55.000000 35.000000
v 50.978168 55.000000 35.161814
v 49.244480 55.000000 35.642017
v 47.624882 55.000000 36.425071
v 55.000000 -5.000000 35.000000
v 55.000000 55.000000 35.000000
v 50.000000 -5.000000 30.000000
v 50.000000 0.000000 30.000000
v 50.000000 55.000000 30.000000
v 55.000000 55.000000 30.000000
v 55.000000 -5.000000 30.000000
v 0.000000 0.000000 30.000000
v 0.000000 -5.000000 30.000000
v -5.000000 -5.000000 30.000000
v -5.000000 55.000000 30.000000
v 0.000000 55.000000 30.000000
v 25.000000 55.000000 45.000000
v 25.000000 0.000000 45.000000
v 25.000000 -5.000000 45.000000
v 25.000000 55.000000 50.000000
v 25.000000 -5.000000 50.000000
vt -2.500000 0.000000 0.000000
vt 0.000000 0.000000 0.000000
vt -2.500000 0.500000 0.000000
vt -0.000000 0.500000 0.000000
vt -4.000000 0.000000 0.000000
vt 0.000000 0.000000 0.000000
vt -4.000000 0.500000 0.000000
vt -0.000000 0.500000 0.000000
vt -2.500000 0.000000 0.000000
vt -0.000000 0.000000 0.000000
vt -2.500000 0.500000 0.000000
vt -0.000000 0.500000 0.000000
vt 1.250000 2.000000 0.000000
vt -1.250000 2.000000 0.000000
vt 1.250000 -2.000000 0.000000
vt -1.250000 -2.000000 0.000000
vt 2.500000 4.000000 0.000000
vt 2.500000 4.500000 0.000000
vt 0.500000 3.000000 0.000000
vt 0.000000 3.000000 0.000000
vt 0.500000 2.500000 0.000000
vt 0.000000 0.000000 0.000000
vt 0.500000 0.000000 0.000000
vt 4.500000 3.000000 0.000000
vt 4.500000 2.500000 0.000000
vt 5.000000 3.000000 0.000000
vt 4.500000 0.000000 0.000000
vt 5.000000 0.000000 0.000000
vt 1.250000 2.000000 0.000000
vt -1.250000 2.000000 0.000000
vt 1.250000 -2.000000 0.000000
vt -1.250000 -2.000000 0.000000
vt -2.500000 4.500000 0.000000
vt -0.000000 4.500000 0.000000
vt -2.500000 5.000000 0.000000
vt -0.000000 5.000000 0.000000
vt -4.000000 4.500000 0.000000
vt -0.000000 4.500000 0.000000
vt -4.000000 5.000000 0.000000
vt -0.000000 5.000000 0.000000
vt -0.000000 5.000000 0.000000
vt -2.236068 5.000000 0.000000
vt 0.000000 0.000000 0.000000
vt -2.236068 -0.000000 0.000000
vt -0.000000 5.000000 0.000000
vt -2.236068 5.000000 0.000000
vt -0.000000 0.000000 0.000000
vt -2.236068 0.000000 0.000000
vt -0.000000 5.000000 0.000000
vt -4.000000 5.000000 0.000000
vt -0.000000 0.000000 0.000000
vt -4.000000 0.000000 0.000000
vt -2.500000 4.500000 0.000000
vt -0.000000 4.500000 0.000000
vt -2.500000 5.000000 0.000000
vt -0.000000 5.000000 0.000000
vt -2.000000 2.500000 0.000000
vt -2.500000 2.500000 0.000000
vt -2.000000 2.000000 0.000000
vt -2.500000 -2.500000 0.000000
vt -2.000000 -2.000000 0.000000
vt -2.000000 -2.500000 0.000000
vt 2.000000 -2.000000 0.000000
vt 2.000000 2.000000 0.000000
vt 2.500000 -2.500000 0.000000
vt 2.500000 2.500000 0.000000
vt 2.000000 -2.500000 0.000000
vt 2.000000 2.500000 0.000000
vt 0.250000 0.270210 0.000000
vt -5.750000 0.270210 0.000000
vt 0.250000 0.090070 0.000000
vt -5.750000 0.090070 0.000000
vt -5.750000 -0.090070 0.000000
vt -5.750000 -0.270210 0.000000
vt 0.250000 -0.270210 0.000000
vt 0.250000 -0.090070 0.000000
vt 0.000000 0.276984 0.000000
vt 6.000000 0.276984 0.000000
vt 0.000000 0.500000 0.000000
vt 6.000000 0.500000 0.000000
vt 2.750000 0.270210 0.000000
vt -3.250000 0.270210 0.000000
vt 2.750000 0.090070 0.000000
vt -3.250000 0.090070 0.000000
vt -3.250000 -0.090070 0.000000
vt -3.250000 -0.270210 0.000000
vt 2.750000 -0.270210 0.000000
vt 2.750000 -0.090070 0.000000
vt 0.000000 0.276984 0.000000
vt 6.000000 0.276984 0.000000
vt 0.000000 0.500000 0.000000
vt 6.000000 0.500000 0.000000
vt 0.000000 0.000000 0.000000
vt 0.500000 0.000000 0.000000
vt 0.000000 0.500000 0.000000
vt 5.500000 0.000000 0.000000
vt 6.000000 0.500000 0.000000
vt 6.000000 0.000000 0.000000
vt -0.250000 -3.000000 0.000000
vt 0.250000 -3.000000 0.000000
vt -0.250000 3.000000 0.000000
vt 0.250000 3.000000 0.000000
vt 5.000000 3.000000 0.000000
vt 0.000000 3.000000 0.000000
vt 5.000000 0.000000 0.000000
vt 0.000000 0.000000 0.000000
vt 6.000000 0.000000 0.000000
vt 6.000000 0.500000 0.000000
vt 5.500000 0.000000 0.000000
vt 0.000000 0.500000 0.000000
vt 0.500000 0.000000 0.000000
vt -0.000000 0.000000 0.000000
vt -0.250000 -3.000000 0.000000
vt 0.250000 -3.000000 0.000000
vt -0.250000 3.000000 0.000000
vt 0.250000 3.000000 0.000000
vt 5.000000 3.000000 0.000000
vt 0.000000 3.000000 0.000000
vt 5.000000 0.000000 0.000000
vt 0.000000 0.000000 0.000000
vt 2.915476 -5.000000 0.000000
vt 0.000000 -5.000000 0.000000
vt 2.915476 -5.500000 0.000000
vt 0.000000 -5.500000 0.000000
vt 0.000000 0.000000 0.000000
vt 2.915476 0.000000 0.000000
vt 0.000000 0.500000 0.000000
vt 2.915476 0.500000 0.000000
vt 2.915476 -5.000000 0.000000
vt 0.000000 -5.000000 0.000000
vt 2.915476 -5.500000 0.000000
vt 0.000000 -5.500000 0.000000
vt -0.357493 -2.262488 0.000000
vt 1.000000 0.000000 0.000000
vt 0.500000 0.000000 0.000000
vt -0.357493 2.262488 0.000000
vt -1.000000 2.500000 0.000000
vt -0.435798 2.424448 0.000000
vt -0.483819 2.597817 0.000000
vt -0.500000 2.776984 0.000000
vt -1.000000 3.000000 0.000000
vt -0.500000 3.000000 0.000000
vt -1.000000 -2.500000 0.000000
vt -0.435798 -2.424448 0.000000
vt -0.483819 -2.597817 0.000000
vt -0.500000 -2.776984 0.000000
vt -1.000000 -3.000000 0.000000
vt -0.500000 -3.000000 0.000000
vt 0.000000 0.000000 0.000000
vt 2.915476 0.000000 0.000000
vt 0.000000 0.500000 0.000000
vt 2.915476 0.500000 0.000000
vt -1.000000 0.000000 0.000000
vt -0.500000 0.000000 0.000000
vt 0.357493 2.262488 0.000000
vt 1.000000 2.500000 0.000000
vt 0.435798 2.424448 0.000000
vt 0.483819 2.597817 0.000000
vt 0.500000 2.776984 0.000000
vt 1.000000 3.000000 0.000000
vt 0.500000 3.000000 0.000000
vt 0.357493 -2.262488 0.000000
vt 1.000000 -2.500000 0.000000
vt 0.435798 -2.424448 0.000000
vt 0.483819 -2.597817 0.000000
vt 0.500000 -2.776984 0.000000
vt 1.000000 -3.000000 0.000000
vt 0.500000 -3.000000 0.000000
vt -2.638492 -0.500000 0.000000
vt -0.000000 -0.500000 0.000000
vt -2.638492 5.500000 0.000000
vt 0.000000 5.500000 0.000000
vt -0.276984 5.500000 0.000000
vt -2.915476 5.500000 0.000000
vt -0.276984 -0.500000 0.000000
vt -2.915476 -0.500000 0.000000
vt 4.500000 0.000000 0.000000
vt 5.000000 0.000000 0.000000
vt 4.500000 2.500000 0.000000
vt 5.000000 3.000000 0.000000
vt 4.500000 3.000000 0.000000
vt 2.500000 4.500000 0.000000
vt 2.500000 4.000000 0.000000
vt 0.500000 3.000000 0.000000
vt 0.000000 3.000000 0.000000
vt 0.500000 2.500000 0.000000
vt 0.000000 0.000000 0.000000
vt 0.500000 0.000000 0.000000
vn 0.100000 0.000000 0.000000
vn 0.100000 0.000000 0.000000
vn 0.100000 0.000000 0.000000
vn 0.100000 0.000000 0.000000
vn 0.000000 0.000000 -0.100000
vn 0.000000 0.000000 -0.100000
vn 0.000000 0.000000 -0.100000
vn 0.000000 0.000000 -0.100000
vn -0.100000 0.000000 0.000000
vn -0.100000 0.000000 0.000000
vn -0.100000 0.000000 0.000000
vn -0.100000 0.000000 0.000000
vn -0.000000 0.100000 -0.000000
vn -0.000000 0.100000 -0.000000
vn -0.000000 0.100000 -0.000000
vn -0.000000 0.100000 -0.000000
vn 0.000000 0.100000 0.000000
vn 0.000000 0.100000 0.000000
vn 0.000000 0.100000 0.000000
vn 0.000000 0.100000 0.000000
vn 0.000000 0.100000 0.000000
vn 0.000000 0.100000 0.000000
vn 0.000000 0.100000 0.000000
vn 0.000000 0.100000 0.000000
vn 0.000000 0.100000 0.000000
vn 0.000000 0.100000 0.000000
vn 0.000000 0.100000 0.000000
vn 0.000000 0.100000 0.000000
vn 0.000000 -0.100000 0.000000
vn 0.000000 -0.100000 0.000000
vn 0.000000 -0.100000 0.000000
vn 0.000000 -0.100000 0.000000
vn 0.100000 0.000000 0.000000
vn 0.100000 0.000000 0.000000
vn 0.100000 0.000000 0.000000
vn 0.100000 0.000000 0.000000
vn 0.000000 0.000000 -0.100000
vn 0.000000 0.000000 -0.100000
vn 0.000000 0.000000 -0.100000
vn 0.000000 0.000000 -0.100000
vn 0.044721 0.000000 -0.089443
vn 0.044721 0.000000 -0.089443
vn 0.044721 0.000000 -0.089443
vn 0.044721 0.000000 -0.089443
vn -0.044721 0.000000 -0.089443
vn -0.044721 0.000000 -0.089443
vn -0.044721 0.000000 -0.089443
vn -0.044721 0.000000 -0.089443
vn 0.000000 0.000000 0.100000
vn 0.000000 0.000000 0.100000
vn 0.000000 0.000000 0.100000
vn 0.000000 0.000000 0.100000
vn -0.100000 0.000000 0.000000
vn -0.100000 0.000000 0.000000
vn -0.100000 0.000000 0.000000
vn -0.100000 0.000000 0.000000
vn 0.000000 0.000000 -0.100000
vn 0.000000 0.000000 -0.100000
vn 0.000000 0.000000 -0.100000
vn 0.000000 0.000000 -0.100000
vn 0.000000 0.000000 -0.100000
vn 0.000000 0.000000 -0.100000
vn 0.000000 0.000000 -0.100000
vn 0.000000 0.000000 -0.100000
vn 0.000000 0.000000 -0.100000
vn 0.000000 0.000000 -0.100000
vn 0.000000 0.000000 -0.100000
vn 0.000000 0.000000 -0.100000
vn -0.051450 0.000000 0.085749
vn -0.051450 0.000000 0.085749
vn -0.035254 0.000000 0.093580
vn -0.035254 0.000000 0.093580
vn -0.017917 0.000000 0.098382
vn 0.000000 0.000000 0.100000
vn 0.000000 0.000000 0.100000
vn -0.017917 0.000000 0.098382
vn 0.000000 0.000000 0.100000
vn 0.000000 0.000000 0.100000
vn 0.051450 -0.000000 0.085749
vn 0.051450 -0.000000 0.085749
vn 0.035254 -0.000000 0.093580
vn 0.035254 -0.000000 0.093580
vn 0.017917 -0.000000 0.098382
vn -0.000000 0.000000 0.100000
vn -0.000000 0.000000 0.100000
vn 0.017917 -0.000000 0.098382
vn 0.000000 0.000000 0.100000
vn 0.000000 0.000000 0.100000
vn 0.000000 0.000000 -0.100000
vn 0.000000 0.000000 -0.100000
vn 0.000000 0.000000 -0.100000
vn 0.000000 0.000000 -0.100000
vn 0.000000 0.000000 -0.100000
vn 0.000000 0.000000 -0.100000
vn 0.100000 0.000000 0.000000
vn 0.100000 0.000000 0.000000
vn 0.100000 0.000000 0.000000
vn 0.100000 0.000000 0.000000
vn 0.100000 0.000000 0.000000
vn 0.100000 0.000000 0.000000
vn 0.100000 0.000000 0.000000
vn 0.100000 0.000000 0.000000
vn 0.000000 0.000000 -0.100000
vn 0.000000 0.000000 -0.100000
vn 0.000000 0.000000 -0.100000
vn 0.000000 0.000000 -0.100000
vn 0.000000 0.000000 -0.100000
vn 0.000000 0.000000 -0.100000
vn -0.100000 0.000000 0.000000
vn -0.100000 0.000000 0.000000
vn -0.100000 0.000000 0.000000
vn -0.100000 0.000000 0.000000
vn -0.100000 0.000000 0.000000
vn -0.100000 0.000000 0.000000
vn -0.100000 0.000000 0.000000
vn -0.100000 0.000000 0.000000
vn -0.051450 0.000000 -0.085749
vn -0.051450 0.000000 -0.085749
vn -0.051450 0.000000 -0.085749
vn -0.051450 0.000000 -0.085749
vn -0.051450 0.000000 -0.085749
vn -0.051450 0.000000 -0.085749
vn -0.051450 0.000000 -0.085749
vn -0.051450 0.000000 -0.085749
vn 0.051450 0.000000 -0.085749
vn 0.051450 0.000000 -0.085749
vn 0.051450 0.000000 -0.085749
vn 0.051450 0.000000 -0.085749
vn 0.000000 0.100000 0.000000
vn 0.000000 0.100000 0.000000
vn 0.000000 0.100000 0.000000
vn 0.000000 0.100000 0.000000
vn 0.000000 0.100000 0.000000
vn 0.000000 0.100000 0.000000
vn 0.000000 0.100000 0.000000
vn 0.000000 0.100000 0.000000
vn 0.000000 0.100000 0.000000
vn 0.000000 0.100000 0.000000
vn 0.000000 0.100000 0.000000
vn 0.000000 0.100000 0.000000
vn 0.000000 0.100000 0.000000
vn 0.000000 0.100000 0.000000
vn 0.000000 0.100000 0.000000
vn 0.000000 0.100000 0.000000
vn 0.051450 0.000000 -0.085749
vn 0.051450 0.000000 -0.085749
vn 0.051450 0.000000 -0.085749
vn 0.051450 0.000000 -0.085749
vn 0.000000 -0.100000 0.000000
vn 0.000000 -0.100000 0.000000
vn 0.000000 -0.100000 0.000000
vn 0.000000 -0.100000 0.000000
vn 0.000000 -0.100000 0.000000
vn 0.000000 -0.100000 0.000000
vn 0.000000 -0.100000 0.000000
vn 0.000000 -0.100000 0.000000
vn 0.000000 -0.100000 0.000000
vn 0.000000 -0.100000 0.000000
vn 0.000000 -0.100000 0.000000
vn 0.000000 -0.100000 0.000000
vn 0.000000 -0.100000 0.000000
vn 0.000000 -0.100000 0.000000
vn 0.000000 -0.100000 0.000000
vn 0.000000 -0.100000 0.000000
vn -0.051450 0.000000 0.085749
vn -0.051450 0.000000 0.085749
vn 0.051450 -0.000000 0.085749
vn 0.051450 -0.000000 0.085749
vn 0.000000 -0.100000 0.000000
vn 0.000000 -0.100000 0.000000
vn 0.000000 -0.100000 0.000000
vn 0.000000 -0.100000 0.000000
vn 0.000000 -0.100000 0.000000
vn 0.000000 -0.100000 0.000000
vn 0.000000 -0.100000 0.000000
vn 0.000000 -0.100000 0.000000
vn 0.000000 -0.100000 0.000000
vn 0.000000 -0.100000 0.000000
vn 0.000000 -0.100000 0.000000
vn 0.000000 -0.100000 0.000000
usemtl Steel_-_Satin
f 1/1/1 2/2/2 4/3/3
f 4/3/3 2/2/2 3/4/4
f 2/5/5 5/6/6 3/7/7
f 3/7/7 5/6/6 6/8/8
f 5/9/9 7/10/10 6/11/11
f 6/11/11 7/10/10 8/12/12
f 6/13/13 8/14/14 3/15/15
f 3/15/15 8/14/14 4/16/16
f 10/17/17 14/18/18 9/19/19
f 9/19/19 14/18/18 15/20/20
f 9/19/19 15/20/20 5/21/21
f 5/21/21 15/20/20 16/22/22
f 5/21/21 16/22/22 7/23/23
f 14/18/18 10/17/17 11/24/24
f 9/19/19 2/25/25 11/24/24
f 11/24/24 2/25/25 13/26/26
f 11/24/24 13/26/26 14/18/18
f 5/21/21 2/25/25 9/19/19
f 1/27/27 12/28/28 2/25/25
f 2/25/25 12/28/28 13/26/26
f 17/29/29 18/30/30 20/31/31
f 20/31/31 18/30/30 19/32/32
f 20/33/33 19/34/34 22/35/35
f 22/35/35 19/34/34 21/36/36
f 19/37/37 18/38/38 21/39/39
f 21/39/39 18/38/38 23/40/40
f 24/41/41 25/42/42 10/43/43
f 10/43/43 25/42/42 11/44/44
f 26/45/45 24/46/46 9/47/47
f 9/47/47 24/46/46 10/48/48
f 25/49/49 26/50/50 11/51/51
f 11/51/51 26/50/50 9/52/52
f 18/53/53 17/54/54 23/55/55
f 23/55/55 17/54/54 27/56/56
f 7/57/57 16/58/58 8/59/59
f 8/59/59 16/58/58 28/60/60
f 8/59/59 28/60/60 17/61/61
f 17/61/61 28/60/60 27/62/62
f 17/61/61 20/63/63 8/59/59
f 8/59/59 20/63/63 4/64/64
f 4/64/64 20/63/63 29/65/65
f 4/64/64 29/65/65 12/66/66
f 20/63/63 22/67/67 29/65/65
f 12/66/66 1/68/68 4/64/64
f 37/69/69 30/70/70 36/71/71
f 36/71/71 30/70/70 31/72/72
f 36/71/71 31/72/72 32/73/73
f 33/74/74 34/75/75 32/73/73
f 32/73/73 34/75/75 35/76/76
f 32/73/73 35/76/76 36/71/71
f 34/77/75 33/78/74 39/79/77
f 39/79/77 33/78/74 38/80/78
f 47/81/79 40/82/80 46/83/81
f 46/83/81 40/82/80 41/84/82
f 46/83/81 41/84/82 42/85/83
f 43/86/84 44/87/85 42/85/83
f 42/85/83 44/87/85 45/88/86
f 42/85/83 45/88/86 46/83/81
f 44/89/85 43/90/84 49/91/87
f 49/91/87 43/90/84 48/92/88
f 50/93/89 51/94/90 54/95/91
f 54/95/91 51/94/90 15/96/92
f 54/95/91 15/96/92 53/97/93
f 53/97/93 15/96/92 52/98/94
f 48/99/95 54/100/96 49/101/97
f 49/101/97 54/100/96 53/102/98
f 15/103/99 51/104/100 16/105/101
f 16/105/101 51/104/100 28/106/102
f 56/107/103 57/108/104 55/109/105
f 55/109/105 57/108/104 58/110/106
f 55/109/105 58/110/106 13/111/107
f 13/111/107 58/110/106 59/112/108
f 57/113/109 39/114/110 58/115/111
f 58/115/111 39/114/110 38/116/112
f 55/117/113 13/118/114 29/119/115
f 29/119/115 13/118/114 12/120/116
f 15/121/117 14/122/118 52/123/119
f 52/123/119 14/122/118 60/124/120
f 61/125/121 51/126/122 62/127/123
f 62/127/123 51/126/122 50/128/124
f 14/129/125 13/130/126 60/131/127
f 60/131/127 13/130/126 59/132/128
f 30/133/129 63/134/130 60/135/131
f 60/135/131 63/134/130 47/136/132
f 60/135/131 47/136/132 52/137/133
f 52/137/133 47/136/132 46/138/134
f 52/137/133 46/138/134 45/139/135
f 45/139/135 44/140/136 52/137/133
f 52/137/133 44/140/136 53/141/137
f 53/141/137 44/140/136 49/142/138
f 60/135/131 59/143/139 30/133/129
f 30/133/129 59/143/139 31/144/140
f 31/144/140 59/143/139 32/145/141
f 32/145/141 59/143/139 33/146/142
f 33/146/142 59/143/139 58/147/143
f 33/146/142 58/147/143 38/148/144
f 55/149/145 61/150/146 56/151/147
f 56/151/147 61/150/146 62/152/148
f 64/153/149 62/154/150 40/155/151
f 40/155/151 62/154/150 50/156/152
f 40/155/151 50/156/152 41/157/153
f 41/157/153 50/156/152 42/158/154
f 42/158/154 50/156/152 43/159/155
f 43/159/155 50/156/152 54/160/156
f 43/159/155 54/160/156 48/161/157
f 64/153/149 37/162/158 62/154/150
f 62/154/150 37/162/158 56/163/159
f 56/163/159 37/162/158 36/164/160
f 56/163/159 36/164/160 35/165/161
f 35/165/161 34/166/162 56/163/159
f 56/163/159 34/166/162 57/167/163
f 57/167/163 34/166/162 39/168/164
f 37/169/69 64/170/165 30/171/70
f 30/171/70 64/170/165 63/172/166
f 47/173/79 63/174/167 40/175/80
f 40/175/80 63/174/167 64/176/168
f 27/177/169 28/178/170 23/179/171
f 23/179/171 28/178/170 51/180/172
f 23/179/171 51/180/172 26/181/173
f 26/181/173 51/180/172 61/182/174
f 26/181/173 61/182/174 24/183/175
f 24/183/175 61/182/174 25/184/176
f 25/184/176 61/182/174 55/185/177
f 25/184/176 55/185/177 21/186/178
f 21/186/178 55/185/177 29/187/179
f 21/186/178 29/187/179 22/188/180
f 21/186/178 23/179/171 25/184/176
f 25/184/176 23/179/171 26/181/173
# 64 vertices
# 188 texture params
# 180 normals
# 128 facets

# 1 groups
