# WaveFront *.obj file (generated by Autodesk ATF)

mtllib b8decc79-257a-4203-b7d1-7f3469507901.mtl

g Body1

v 52.986603 3.682426 0.000000
v 49.163085 6.658540 0.000000
v 42.935061 10.990668 0.000000
v 36.544957 14.794572 0.000000
v 29.993768 18.040046 0.000000
v 23.282487 20.696881 0.000000
v 17.074672 22.557998 0.000000
v 10.767929 23.865047 0.000000
v 4.396553 24.591579 0.000000
v -2.005158 24.711145 0.000000
v -8.223393 24.231601 0.000000
v -14.389820 23.187494 0.000000
v -20.477568 21.607773 0.000000
v -26.459764 19.521390 0.000000
v -33.353515 16.456802 0.000000
v -40.071047 12.777331 0.000000
v -46.614647 8.510149 0.000000
v -52.986603 3.682426 0.000000
v -52.986603 3.682426 0.050000
v -46.614647 8.510149 0.050000
v -40.071047 12.777331 0.050000
v -33.353515 16.456802 0.050000
v -26.459764 19.521390 0.050000
v -20.477568 21.607773 0.050000
v -14.389820 23.187494 0.050000
v -8.223393 24.231601 0.050000
v -2.005158 24.711145 0.050000
v 4.396553 24.591579 0.050000
v 10.767929 23.865047 0.050000
v 17.074672 22.557998 0.050000
v 23.282487 20.696881 0.050000
v 29.993768 18.040046 0.050000
v 36.544957 14.794572 0.050000
v 42.935061 10.990668 0.050000
v 49.163085 6.658540 0.050000
v 52.986603 3.682426 0.050000
v 50.000001 0.000000 0.000000
v 50.000001 0.000000 0.050000
v -50.000001 0.000000 0.000000
v -44.145894 4.445287 0.000000
v -38.165314 8.382531 0.000000
v -32.058132 11.797126 0.000000
v -25.827624 14.665265 0.000000
v -19.483746 16.955310 0.000000
v -13.045582 18.630572 0.000000
v -6.540228 19.654843 0.000000
v 0.000000 20.000000 0.000000
v 6.540228 19.654843 0.000000
v 13.045582 18.630572 0.000000
v 19.483746 16.955310 0.000000
v 25.827624 14.665265 0.000000
v 32.058132 11.797126 0.000000
v 38.165314 8.382531 0.000000
v 44.145894 4.445287 0.000000
v 44.145894 4.445287 0.050000
v 38.165314 8.382531 0.050000
v 32.058132 11.797126 0.050000
v 25.827624 14.665265 0.050000
v 19.483746 16.955310 0.050000
v 13.045582 18.630572 0.050000
v 6.540228 19.654843 0.050000
v 0.000000 20.000000 0.050000
v -6.540228 19.654843 0.050000
v -13.045582 18.630572 0.050000
v -19.483746 16.955310 0.050000
v -25.827624 14.665265 0.050000
v -32.058132 11.797126 0.050000
v -38.165314 8.382531 0.050000
v -44.145894 4.445287 0.050000
v -50.000001 0.000000 0.050000
vt -11.271361 0.000000 0.000000
vt -10.827686 0.000000 0.000000
vt -11.271361 0.005000 0.000000
vt -10.827686 0.005000 0.000000
vt -10.120072 0.000000 0.000000
vt -10.120072 0.005000 0.000000
vt -9.412459 0.000000 0.000000
vt -9.412459 0.005000 0.000000
vt -8.704846 0.000000 0.000000
vt -8.704846 0.005000 0.000000
vt -7.997232 0.000000 0.000000
vt -7.997232 0.005000 0.000000
vt -7.356731 0.000000 0.000000
vt -7.356731 0.005000 0.000000
vt -6.716229 0.000000 0.000000
vt -6.716229 0.005000 0.000000
vt -6.075728 0.000000 0.000000
vt -6.075728 0.005000 0.000000
vt -5.435227 0.000000 0.000000
vt -5.435227 0.005000 0.000000
vt -4.811751 0.000000 0.000000
vt -4.811751 0.005000 0.000000
vt -4.188275 0.000000 0.000000
vt -4.188275 0.005000 0.000000
vt -3.564799 0.000000 0.000000
vt -3.564799 0.005000 0.000000
vt -2.941323 0.000000 0.000000
vt -2.941323 0.005000 0.000000
vt -2.205992 0.000000 0.000000
vt -2.205992 0.005000 0.000000
vt -1.470661 0.000000 0.000000
vt -1.470661 0.005000 0.000000
vt -0.735331 0.000000 0.000000
vt -0.735331 0.005000 0.000000
vt 0.000000 0.000000 0.000000
vt 0.000000 0.005000 0.000000
vt 0.000000 0.000000 0.000000
vt 0.474131 0.000000 0.000000
vt -0.000000 0.005000 0.000000
vt 0.474131 0.005000 0.000000
vt 0.000000 0.000000 0.000000
vt 0.654612 0.000000 0.000000
vt 0.000000 0.005000 0.000000
vt 0.654612 0.005000 0.000000
vt 1.309225 0.000000 0.000000
vt 1.309225 0.005000 0.000000
vt 1.963837 0.000000 0.000000
vt 1.963837 0.005000 0.000000
vt 2.618450 0.000000 0.000000
vt 2.618450 0.005000 0.000000
vt 3.273062 0.000000 0.000000
vt 3.273062 0.005000 0.000000
vt 3.927675 0.000000 0.000000
vt 3.927675 0.005000 0.000000
vt 4.582287 0.000000 0.000000
vt 4.582287 0.005000 0.000000
vt 5.236899 0.000000 0.000000
vt 5.236899 0.005000 0.000000
vt 5.891512 0.000000 0.000000
vt 5.891512 0.005000 0.000000
vt 6.546124 0.000000 0.000000
vt 6.546124 0.005000 0.000000
vt 7.200737 0.000000 0.000000
vt 7.200737 0.005000 0.000000
vt 7.855349 0.000000 0.000000
vt 7.855349 0.005000 0.000000
vt 8.509961 0.000000 0.000000
vt 8.509961 0.005000 0.000000
vt 9.164574 0.000000 0.000000
vt 9.164574 0.005000 0.000000
vt 9.819186 0.000000 0.000000
vt 9.819186 0.005000 0.000000
vt 10.473799 0.000000 0.000000
vt 10.473799 0.005000 0.000000
vt 0.000000 0.000000 0.000000
vt 0.474131 0.000000 0.000000
vt 0.000000 0.005000 0.000000
vt 0.474131 0.005000 0.000000
vt -5.000000 -1.248406 0.000000
vt -4.414589 -0.803878 0.000000
vt -5.298660 -0.880164 0.000000
vt -4.661465 -0.397391 0.000000
vt -3.816531 -0.410153 0.000000
vt -4.007105 0.029327 0.000000
vt -3.205813 -0.068694 0.000000
vt -2.582762 0.218120 0.000000
vt -3.335352 0.397274 0.000000
vt -1.948375 0.447125 0.000000
vt -2.645976 0.703733 0.000000
vt -1.304558 0.614651 0.000000
vt -2.047757 0.912371 0.000000
vt -0.654023 0.717078 0.000000
vt -1.438982 1.070343 0.000000
vt -0.822339 1.174754 0.000000
vt 0.000000 0.751594 0.000000
vt -0.200516 1.222708 0.000000
vt 0.439655 1.210752 0.000000
vt 1.076793 1.138099 0.000000
vt 0.654023 0.717078 0.000000
vt 1.707467 1.007394 0.000000
vt 1.304558 0.614651 0.000000
vt 2.328249 0.821282 0.000000
vt 1.948375 0.447125 0.000000
vt 2.999377 0.555598 0.000000
vt 2.582762 0.218120 0.000000
vt 3.654496 0.231051 0.000000
vt 3.205813 -0.068694 0.000000
vt 4.293506 -0.149339 0.000000
vt 3.816531 -0.410153 0.000000
vt 4.916308 -0.582552 0.000000
vt 4.414589 -0.803878 0.000000
vt 5.298660 -0.880164 0.000000
vt 5.000000 -1.248406 0.000000
vt 5.000000 -1.248406 0.000000
vt 5.298660 -0.880164 0.000000
vt 4.414589 -0.803878 0.000000
vt 4.661465 -0.397391 0.000000
vt 3.816531 -0.410153 0.000000
vt 4.007105 0.029327 0.000000
vt 3.205813 -0.068694 0.000000
vt 2.582762 0.218120 0.000000
vt 3.335352 0.397274 0.000000
vt 1.948375 0.447125 0.000000
vt 2.645976 0.703733 0.000000
vt 1.304558 0.614651 0.000000
vt 2.047757 0.912371 0.000000
vt 0.654023 0.717078 0.000000
vt 1.438982 1.070343 0.000000
vt 0.822339 1.174754 0.000000
vt -0.000000 0.751594 0.000000
vt 0.200516 1.222708 0.000000
vt -0.439655 1.210752 0.000000
vt -1.076793 1.138099 0.000000
vt -0.654023 0.717078 0.000000
vt -1.707467 1.007394 0.000000
vt -1.304558 0.614651 0.000000
vt -2.328249 0.821282 0.000000
vt -1.948375 0.447125 0.000000
vt -2.999377 0.555598 0.000000
vt -2.582762 0.218120 0.000000
vt -3.654496 0.231051 0.000000
vt -3.205813 -0.068694 0.000000
vt -4.293506 -0.149339 0.000000
vt -3.816531 -0.410153 0.000000
vt -4.916308 -0.582552 0.000000
vt -4.414589 -0.803878 0.000000
vt -5.298660 -0.880164 0.000000
vt -5.000000 -1.248406 0.000000
vn 0.062991 0.077667 0.000000
vn 0.059801 0.080149 0.000000
vn 0.062991 0.077667 0.000000
vn 0.059801 0.080149 0.000000
vn 0.054237 0.084014 0.000000
vn 0.054237 0.084014 0.000000
vn 0.047887 0.087788 0.000000
vn 0.047887 0.087788 0.000000
vn 0.040716 0.091336 0.000000
vn 0.040716 0.091336 0.000000
vn 0.032732 0.094491 0.000000
vn 0.032732 0.094491 0.000000
vn 0.024585 0.096931 0.000000
vn 0.024585 0.096931 0.000000
vn 0.015891 0.098729 0.000000
vn 0.015891 0.098729 0.000000
vn 0.006672 0.099777 0.000000
vn 0.006672 0.099777 0.000000
vn -0.003008 0.099955 0.000000
vn -0.003008 0.099955 0.000000
vn -0.012278 0.099243 0.000000
vn -0.012278 0.099243 0.000000
vn -0.020996 0.097771 0.000000
vn -0.020996 0.097771 0.000000
vn -0.029113 0.095668 0.000000
vn -0.029113 0.095668 0.000000
vn -0.036622 0.093053 0.000000
vn -0.036622 0.093053 0.000000
vn -0.044447 0.089580 0.000000
vn -0.044447 0.089580 0.000000
vn -0.051447 0.085751 0.000000
vn -0.051447 0.085751 0.000000
vn -0.057616 0.081734 0.000000
vn -0.057616 0.081734 0.000000
vn -0.062991 0.077667 0.000000
vn -0.062991 0.077667 0.000000
vn 0.077667 -0.062991 0.000000
vn 0.077667 -0.062991 0.000000
vn 0.077667 -0.062991 0.000000
vn 0.077667 -0.062991 0.000000
vn 0.062991 -0.077667 0.000000
vn 0.057816 -0.081592 0.000000
vn 0.062991 -0.077667 0.000000
vn 0.057816 -0.081592 0.000000
vn 0.051996 -0.085419 0.000000
vn 0.051996 -0.085419 0.000000
vn 0.045426 -0.089087 0.000000
vn 0.045426 -0.089087 0.000000
vn 0.038013 -0.092493 0.000000
vn 0.038013 -0.092493 0.000000
vn 0.029699 -0.095488 0.000000
vn 0.029699 -0.095488 0.000000
vn 0.020483 -0.097880 0.000000
vn 0.020483 -0.097880 0.000000
vn 0.010485 -0.099449 0.000000
vn 0.010485 -0.099449 0.000000
vn -0.000000 -0.100000 0.000000
vn -0.000000 -0.100000 0.000000
vn -0.010485 -0.099449 0.000000
vn -0.010485 -0.099449 0.000000
vn -0.020483 -0.097880 0.000000
vn -0.020483 -0.097880 0.000000
vn -0.029699 -0.095488 0.000000
vn -0.029699 -0.095488 0.000000
vn -0.038013 -0.092493 0.000000
vn -0.038013 -0.092493 0.000000
vn -0.045426 -0.089087 0.000000
vn -0.045426 -0.089087 0.000000
vn -0.051996 -0.085419 0.000000
vn -0.051996 -0.085419 0.000000
vn -0.057816 -0.081592 0.000000
vn -0.057816 -0.081592 0.000000
vn -0.062991 -0.077667 0.000000
vn -0.062991 -0.077667 0.000000
vn -0.077667 -0.062991 0.000000
vn -0.077667 -0.062991 0.000000
vn -0.077667 -0.062991 0.000000
vn -0.077667 -0.062991 0.000000
vn 0.000000 0.000000 0.100000
vn 0.000000 0.000000 0.100000
vn 0.000000 0.000000 0.100000
vn 0.000000 0.000000 0.100000
vn 0.000000 0.000000 0.100000
vn 0.000000 0.000000 0.100000
vn 0.000000 0.000000 0.100000
vn 0.000000 0.000000 0.100000
vn 0.000000 0.000000 0.100000
vn 0.000000 0.000000 0.100000
vn 0.000000 0.000000 0.100000
vn 0.000000 0.000000 0.100000
vn 0.000000 0.000000 0.100000
vn 0.000000 0.000000 0.100000
vn 0.000000 0.000000 0.100000
vn 0.000000 0.000000 0.100000
vn 0.000000 0.000000 0.100000
vn 0.000000 0.000000 0.100000
vn 0.000000 0.000000 0.100000
vn 0.000000 0.000000 0.100000
vn 0.000000 0.000000 0.100000
vn 0.000000 0.000000 0.100000
vn 0.000000 0.000000 0.100000
vn 0.000000 0.000000 0.100000
vn 0.000000 0.000000 0.100000
vn 0.000000 0.000000 0.100000
vn 0.000000 0.000000 0.100000
vn 0.000000 0.000000 0.100000
vn 0.000000 0.000000 0.100000
vn 0.000000 0.000000 0.100000
vn 0.000000 0.000000 0.100000
vn 0.000000 0.000000 0.100000
vn 0.000000 0.000000 0.100000
vn 0.000000 0.000000 0.100000
vn 0.000000 0.000000 0.100000
vn 0.000000 0.000000 -0.100000
vn 0.000000 0.000000 -0.100000
vn 0.000000 0.000000 -0.100000
vn 0.000000 0.000000 -0.100000
vn 0.000000 0.000000 -0.100000
vn 0.000000 0.000000 -0.100000
vn 0.000000 0.000000 -0.100000
vn 0.000000 0.000000 -0.100000
vn 0.000000 0.000000 -0.100000
vn 0.000000 0.000000 -0.100000
vn 0.000000 0.000000 -0.100000
vn 0.000000 0.000000 -0.100000
vn 0.000000 0.000000 -0.100000
vn 0.000000 0.000000 -0.100000
vn 0.000000 0.000000 -0.100000
vn 0.000000 0.000000 -0.100000
vn 0.000000 0.000000 -0.100000
vn 0.000000 0.000000 -0.100000
vn 0.000000 0.000000 -0.100000
vn 0.000000 0.000000 -0.100000
vn 0.000000 0.000000 -0.100000
vn 0.000000 0.000000 -0.100000
vn 0.000000 0.000000 -0.100000
vn 0.000000 0.000000 -0.100000
vn 0.000000 0.000000 -0.100000
vn 0.000000 0.000000 -0.100000
vn 0.000000 0.000000 -0.100000
vn 0.000000 0.000000 -0.100000
vn 0.000000 0.000000 -0.100000
vn 0.000000 0.000000 -0.100000
vn 0.000000 0.000000 -0.100000
vn 0.000000 0.000000 -0.100000
vn 0.000000 0.000000 -0.100000
vn 0.000000 0.000000 -0.100000
vn 0.000000 0.000000 -0.100000
usemtl Steel_-_Satin
f 1/1/1 2/2/2 36/3/3
f 36/3/3 2/2/2 35/4/4
f 35/4/4 2/2/2 3/5/5
f 35/4/4 3/5/5 34/6/6
f 34/6/6 3/5/5 4/7/7
f 34/6/6 4/7/7 33/8/8
f 33/8/8 4/7/7 5/9/9
f 33/8/8 5/9/9 32/10/10
f 32/10/10 5/9/9 6/11/11
f 32/10/10 6/11/11 31/12/12
f 31/12/12 6/11/11 7/13/13
f 31/12/12 7/13/13 30/14/14
f 30/14/14 7/13/13 8/15/15
f 30/14/14 8/15/15 29/16/16
f 29/16/16 8/15/15 9/17/17
f 29/16/16 9/17/17 28/18/18
f 28/18/18 9/17/17 10/19/19
f 28/18/18 10/19/19 27/20/20
f 27/20/20 10/19/19 11/21/21
f 27/20/20 11/21/21 26/22/22
f 26/22/22 11/21/21 12/23/23
f 26/22/22 12/23/23 25/24/24
f 25/24/24 12/23/23 13/25/25
f 25/24/24 13/25/25 24/26/26
f 24/26/26 13/25/25 14/27/27
f 24/26/26 14/27/27 23/28/28
f 23/28/28 14/27/27 15/29/29
f 23/28/28 15/29/29 22/30/30
f 22/30/30 15/29/29 16/31/31
f 22/30/30 16/31/31 21/32/32
f 21/32/32 16/31/31 17/33/33
f 21/32/32 17/33/33 20/34/34
f 20/34/34 17/33/33 18/35/35
f 20/34/34 18/35/35 19/36/36
f 37/37/37 1/38/38 38/39/39
f 38/39/39 1/38/38 36/40/40
f 39/41/41 40/42/42 70/43/43
f 70/43/43 40/42/42 69/44/44
f 69/44/44 40/42/42 41/45/45
f 69/44/44 41/45/45 68/46/46
f 68/46/46 41/45/45 42/47/47
f 68/46/46 42/47/47 67/48/48
f 67/48/48 42/47/47 43/49/49
f 67/48/48 43/49/49 66/50/50
f 66/50/50 43/49/49 44/51/51
f 66/50/50 44/51/51 65/52/52
f 65/52/52 44/51/51 45/53/53
f 65/52/52 45/53/53 64/54/54
f 64/54/54 45/53/53 46/55/55
f 64/54/54 46/55/55 63/56/56
f 63/56/56 46/55/55 47/57/57
f 63/56/56 47/57/57 62/58/58
f 62/58/58 47/57/57 48/59/59
f 62/58/58 48/59/59 61/60/60
f 61/60/60 48/59/59 49/61/61
f 61/60/60 49/61/61 60/62/62
f 60/62/62 49/61/61 50/63/63
f 60/62/62 50/63/63 59/64/64
f 59/64/64 50/63/63 51/65/65
f 59/64/64 51/65/65 58/66/66
f 58/66/66 51/65/65 52/67/67
f 58/66/66 52/67/67 57/68/68
f 57/68/68 52/67/67 53/69/69
f 57/68/68 53/69/69 56/70/70
f 56/70/70 53/69/69 54/71/71
f 56/70/70 54/71/71 55/72/72
f 55/72/72 54/71/71 37/73/73
f 55/72/72 37/73/73 38/74/74
f 18/75/75 39/76/76 19/77/77
f 19/77/77 39/76/76 70/78/78
f 70/79/79 69/80/80 19/81/81
f 19/81/81 69/80/80 20/82/82
f 20/82/82 69/80/80 68/83/83
f 20/82/82 68/83/83 21/84/84
f 21/84/84 68/83/83 67/85/85
f 21/84/84 67/85/85 66/86/86
f 21/84/84 66/86/86 22/87/87
f 22/87/87 66/86/86 65/88/88
f 22/87/87 65/88/88 23/89/89
f 23/89/89 65/88/88 64/90/90
f 23/89/89 64/90/90 24/91/91
f 24/91/91 64/90/90 63/92/92
f 24/91/91 63/92/92 25/93/93
f 25/93/93 63/92/92 26/94/94
f 26/94/94 63/92/92 62/95/95
f 26/94/94 62/95/95 27/96/96
f 27/96/96 62/95/95 28/97/97
f 28/97/97 62/95/95 29/98/98
f 29/98/98 62/95/95 61/99/99
f 29/98/98 61/99/99 30/100/100
f 30/100/100 61/99/99 60/101/101
f 30/100/100 60/101/101 31/102/102
f 31/102/102 60/101/101 59/103/103
f 31/102/102 59/103/103 32/104/104
f 32/104/104 59/103/103 58/105/105
f 32/104/104 58/105/105 33/106/106
f 33/106/106 58/105/105 57/107/107
f 33/106/106 57/107/107 34/108/108
f 34/108/108 57/107/107 56/109/109
f 34/108/108 56/109/109 35/110/110
f 35/110/110 56/109/109 55/111/111
f 35/110/110 55/111/111 36/112/112
f 36/112/112 55/111/111 38/113/113
f 39/114/114 18/115/115 40/116/116
f 40/116/116 18/115/115 17/117/117
f 40/116/116 17/117/117 41/118/118
f 41/118/118 17/117/117 16/119/119
f 41/118/118 16/119/119 42/120/120
f 42/120/120 16/119/119 43/121/121
f 43/121/121 16/119/119 15/122/122
f 43/121/121 15/122/122 44/123/123
f 44/123/123 15/122/122 14/124/124
f 44/123/123 14/124/124 45/125/125
f 45/125/125 14/124/124 13/126/126
f 45/125/125 13/126/126 46/127/127
f 46/127/127 13/126/126 12/128/128
f 46/127/127 12/128/128 11/129/129
f 46/127/127 11/129/129 47/130/130
f 47/130/130 11/129/129 10/131/131
f 47/130/130 10/131/131 9/132/132
f 9/132/132 8/133/133 47/130/130
f 47/130/130 8/133/133 48/134/134
f 48/134/134 8/133/133 7/135/135
f 48/134/134 7/135/135 49/136/136
f 49/136/136 7/135/135 6/137/137
f 49/136/136 6/137/137 50/138/138
f 50/138/138 6/137/137 5/139/139
f 50/138/138 5/139/139 51/140/140
f 51/140/140 5/139/139 4/141/141
f 51/140/140 4/141/141 52/142/142
f 52/142/142 4/141/141 3/143/143
f 52/142/142 3/143/143 53/144/144
f 53/144/144 3/143/143 2/145/145
f 53/144/144 2/145/145 54/146/146
f 54/146/146 2/145/145 1/147/147
f 54/146/146 1/147/147 37/148/148
# 70 vertices
# 148 texture params
# 148 normals
# 136 facets

# 1 groups
