{
  "accessors": [
    {
      "bufferView": 1,
      "componentType": 5126,
      "count": 2114,
      "max": [
        -7.7151808738708496,
        0.88811498880386353,
        0.49428200721740723
      ],
      "min": [
        -10.888070106506348,
        -3.3482890129089355,
        -0.49428200721740723
      ],
      "type": "VEC3"
    },
    {
      "bufferView": 1,
      "byteOffset": 25368,
      "componentType": 5126,
      "count": 2114,
      "max": [
        0.93969273567199707,
        0.94021624326705933,
        1
      ],
      "min": [
        -0.93959265947341919,
        -0.93969637155532837,
        -0.99996346235275269
      ],
      "type": "VEC3"
    },
    {
      "bufferView": 2,
      "componentType": 5126,
      "count": 2114,
      "max": [
        0.9396933913230896,
        0.93969279527664185,
        1,
        1
      ],
      "min": [
        -0.9396933913230896,
        -0.98879462480545044,
        -1,
        -1
      ],
      "type": "VEC4"
    },
    {
      "bufferView": 0,
      "componentType": 5125,
      "count": 3708,
      "max": [
        2113
      ],
      "min": [
        0
      ],
      "type": "SCALAR"
    },
    {
      "bufferView": 1,
      "byteOffset": 50736,
      "componentType": 5126,
      "count": 8966,
      "max": [
        -8.0374441146850586,
        0.76439797878265381,
        0.93978101015090942
      ],
      "min": [
        -13.761947631835938,
        -3.5106880664825439,
        -0.93978101015090942
      ],
      "type": "VEC3"
    },
    {
      "bufferView": 1,
      "byteOffset": 158328,
      "componentType": 5126,
      "count": 8966,
      "max": [
        0.99475336074829102,
        0.98519736528396606,
        1
      ],
      "min": [
        -0.98728698492050171,
        -0.99999487400054932,
        -1
      ],
      "type": "VEC3"
    },
    {
      "bufferView": 2,
      "byteOffset": 33824,
      "componentType": 5126,
      "count": 8966,
      "max": [
        0.99976247549057007,
        0.99987423419952393,
        1,
        1
      ],
      "min": [
        -0.99999833106994629,
        -0.99819952249526978,
        -1,
        -1
      ],
      "type": "VEC4"
    },
    {
      "bufferView": 0,
      "byteOffset": 14832,
      "componentType": 5125,
      "count": 39138,
      "max": [
        8965
      ],
      "min": [
        0
      ],
      "type": "SCALAR"
    },
    {
      "bufferView": 1,
      "byteOffset": 265920,
      "componentType": 5126,
      "count": 41044,
      "max": [
        15.127144813537598,
        3.6495120525360107,
        0.98805099725723267
      ],
      "min": [
        -14.746426582336426,
        -3.585319995880127,
        -0.98698902130126953
      ],
      "type": "VEC3"
    },
    {
      "bufferView": 1,
      "byteOffset": 758448,
      "componentType": 5126,
      "count": 41044,
      "max": [
        1,
        1,
        1
      ],
      "min": [
        -1,
        -1,
        -1
      ],
      "type": "VEC3"
    },
    {
      "bufferView": 2,
      "byteOffset": 177280,
      "componentType": 5126,
      "count": 41044,
      "max": [
        1,
        1,
        1,
        1
      ],
      "min": [
        -1,
        -1,
        -1,
        -1
      ],
      "type": "VEC4"
    },
    {
      "bufferView": 0,
      "byteOffset": 171384,
      "componentType": 5125,
      "count": 206736,
      "max": [
        41043
      ],
      "min": [
        0
      ],
      "type": "SCALAR"
    },
    {
      "bufferView": 1,
      "byteOffset": 1250976,
      "componentType": 5126,
      "count": 5969,
      "max": [
        -7.5101819038391113,
        0.59145498275756836,
        0.84485399723052979
      ],
      "min": [
        -9.3869543075561523,
        -1.2397919893264771,
        -0.84485399723052979
      ],
      "type": "VEC3"
    },
    {
      "bufferView": 1,
      "byteOffset": 1322604,
      "componentType": 5126,
      "count": 5969,
      "max": [
        0.9996037483215332,
        0.99959802627563477,
        1
      ],
      "min": [
        -0.99898934364318848,
        -0.99301648139953613,
        -1
      ],
      "type": "VEC3"
    },
    {
      "bufferView": 2,
      "byteOffset": 833984,
      "componentType": 5126,
      "count": 5969,
      "max": [
        0.97475099563598633,
        0.99914193153381348,
        0.99998539686203003,
        1
      ],
      "min": [
        -0.99163562059402466,
        -0.45557767152786255,
        -0.99960952997207642,
        -1
      ],
      "type": "VEC4"
    },
    {
      "bufferView": 0,
      "byteOffset": 998328,
      "componentType": 5125,
      "count": 33462,
      "max": [
        5968
      ],
      "min": [
        0
      ],
      "type": "SCALAR"
    },
    {
      "bufferView": 1,
      "byteOffset": 1394232,
      "componentType": 5126,
      "count": 31,
      "max": [
        -8.0374441146850586,
        -3.0117270946502686,
        0.49428200721740723
      ],
      "min": [
        -8.3939952850341797,
        -3.1415009498596191,
        -0.49428200721740723
      ],
      "type": "VEC3"
    },
    {
      "bufferView": 1,
      "byteOffset": 1394604,
      "componentType": 5126,
      "count": 31,
      "max": [
        0.34202110767364502,
        -0.93969237804412842,
        0
      ],
      "min": [
        0.34201902151107788,
        -0.93969309329986572,
        0
      ],
      "type": "VEC3"
    },
    {
      "bufferView": 2,
      "byteOffset": 929488,
      "componentType": 5126,
      "count": 31,
      "max": [
        0,
        0,
        1,
        1
      ],
      "min": [
        -0.93969279527664185,
        -0.34201991558074951,
        -1,
        -1
      ],
      "type": "VEC4"
    },
    {
      "bufferView": 0,
      "byteOffset": 1132176,
      "componentType": 5125,
      "count": 90,
      "max": [
        30
      ],
      "min": [
        0
      ],
      "type": "SCALAR"
    }
  ],
  "asset": {
    "extras": {
      "author": "CGWorker (https://sketchfab.com/CGWorker)",
      "license": "CC-BY-4.0 (http://creativecommons.org/licenses/by/4.0/)",
      "source": "https://sketchfab.com/models/e13f98a9d7364510a65042d4c42e7a9c",
      "title": "Adjustable Spanner/Wrench"
    },
    "generator": "Sketchfab-3.18.0",
    "version": "2.0"
  },
  "bufferViews": [
    {
      "buffer": 0,
      "byteLength": 1132536,
      "byteOffset": 0,
      "name": "floatBufferViews",
      "target": 34963
    },
    {
      "buffer": 0,
      "byteLength": 1394976,
      "byteOffset": 1132536,
      "byteStride": 12,
      "name": "floatBufferViews",
      "target": 34962
    },
    {
      "buffer": 0,
      "byteLength": 929984,
      "byteOffset": 2527512,
      "byteStride": 16,
      "name": "floatBufferViews",
      "target": 34962
    }
  ],
  "buffers": [
    {
      "byteLength": 3457496,
      "uri": "scene.bin"
    }
  ],
  "materials": [
    {
      "doubleSided": true,
      "emissiveFactor": [
        0,
        0,
        0
      ],
      "name": "initialShadingGroup",
      "pbrMetallicRoughness": {
        "baseColorFactor": [
          1,
          1,
          1,
          1
        ],
        "metallicFactor": 0,
        "roughnessFactor": 0.59999999999999998
      }
    }
  ],
  "meshes": [
    {
      "primitives": [
        {
          "attributes": {
            "NORMAL": 1,
            "POSITION": 0,
            "TANGENT": 2
          },
          "indices": 3,
          "material": 0,
          "mode": 4
        }
      ]
    },
    {
      "primitives": [
        {
          "attributes": {
            "NORMAL": 5,
            "POSITION": 4,
            "TANGENT": 6
          },
          "indices": 7,
          "material": 0,
          "mode": 4
        }
      ]
    },
    {
      "primitives": [
        {
          "attributes": {
            "NORMAL": 9,
            "POSITION": 8,
            "TANGENT": 10
          },
          "indices": 11,
          "material": 0,
          "mode": 4
        }
      ]
    },
    {
      "primitives": [
        {
          "attributes": {
            "NORMAL": 13,
            "POSITION": 12,
            "TANGENT": 14
          },
          "indices": 15,
          "material": 0,
          "mode": 4
        }
      ]
    },
    {
      "primitives": [
        {
          "attributes": {
            "NORMAL": 17,
            "POSITION": 16,
            "TANGENT": 18
          },
          "indices": 19,
          "material": 0,
          "mode": 4
        }
      ]
    }
  ],
  "nodes": [
    {
      "children": [
        1
      ],
      "name": "RootNode (gltf orientation matrix)",
      "rotation": [
        -0.70710678118654746,
        -0,
        -0,
        0.70710678118654757
      ]
    },
    {
      "children": [
        2
      ],
      "name": "RootNode (model correction matrix)"
    },
    {
      "children": [
        3,
        4,
        5,
        6,
        7
      ],
      "name": "Adjustable_Spanner_01.obj.cleaner.materialmerger.gles"
    },
    {
      "mesh": 0,
      "name": ""
    },
    {
      "mesh": 1,
      "name": ""
    },
    {
      "mesh": 2,
      "name": ""
    },
    {
      "mesh": 3,
      "name": ""
    },
    {
      "mesh": 4,
      "name": ""
    }
  ],
  "scene": 0,
  "scenes": [
    {
      "name": "OSG_Scene",
      "nodes": [
        0
      ]
    }
  ]
}

