# WaveFront *.obj file (generated by Autodesk ATF)

mtllib f92fe5b3-223f-4b6e-a6e9-0a5f6ff27c67.mtl

g Body1

v 2.578534 1.631413 0.000000
v 2.578534 1.631413 4.000000
v 2.923361 0.769344 4.000000
v 2.923361 0.769344 0.000000
v 5.363964 2.745585 4.000000
v 5.363964 2.745585 0.000000
v 5.708791 1.883516 0.000000
v 5.708791 1.883516 4.000000
v 1.000000 0.000000 0.000000
v 0.000000 0.000000 0.000000
v 0.000000 14.000000 0.000000
v 11.000000 14.000000 0.000000
v 11.000000 4.000000 0.000000
v 10.000000 4.600000 0.000000
v 10.000000 13.000000 0.000000
v 1.000000 13.000000 0.000000
v 1.000000 1.000000 0.000000
v 11.000000 4.000000 6.000000
v 1.000000 0.000000 6.000000
v 10.000000 4.600000 6.000000
v 10.000000 13.000000 6.000000
v 1.000000 13.000000 6.000000
v 1.000000 1.000000 6.000000
v 11.000000 14.000000 6.000000
v 0.000000 0.000000 6.000000
v 0.000000 14.000000 6.000000
vt -0.000000 0.092848 0.000000
vt -0.400000 0.092848 0.000000
vt -0.000000 0.000000 0.000000
vt -0.400000 0.000000 0.000000
vt -0.000000 0.092848 0.000000
vt -0.400000 0.092848 0.000000
vt 0.000000 0.000000 0.000000
vt -0.400000 0.000000 0.000000
vt 0.000000 0.092848 0.000000
vt -0.300000 0.092848 0.000000
vt 0.000000 0.000000 0.000000
vt -0.300000 0.000000 0.000000
vt 0.292147 -0.536859 0.000000
vt 0.257664 -0.623066 0.000000
vt 0.450000 -0.600000 0.000000
vt 0.450000 -0.700000 0.000000
vt 0.550000 -0.700000 0.000000
vt 0.450000 0.600000 0.000000
vt 0.550000 0.700000 0.000000
vt -0.550000 0.700000 0.000000
vt -0.450000 0.600000 0.000000
vt -0.550000 -0.300000 0.000000
vt -0.450000 -0.240000 0.000000
vt -0.020879 -0.511648 0.000000
vt 0.013604 -0.425441 0.000000
vt 0.207152 0.000000 0.000000
vt 0.207152 0.400000 0.000000
vt 0.000000 0.000000 0.000000
vt 0.000000 0.600000 0.000000
vt 0.507152 0.400000 0.000000
vt 1.077033 0.600000 0.000000
vt 1.077033 0.000000 0.000000
vt 0.507152 0.000000 0.000000
vt -0.000000 0.000000 0.000000
vt 0.840000 0.000000 0.000000
vt -0.000000 0.600000 0.000000
vt 0.840000 0.600000 0.000000
vt 0.000000 0.000000 0.000000
vt 0.900000 0.000000 0.000000
vt 0.000000 0.600000 0.000000
vt 0.900000 0.600000 0.000000
vt 0.000000 0.000000 0.000000
vt 1.200000 0.000000 0.000000
vt 0.000000 0.600000 0.000000
vt 1.200000 0.600000 0.000000
vt 0.799316 0.000000 0.000000
vt 0.969330 0.000000 0.000000
vt 0.799316 0.400000 0.000000
vt 0.969330 0.600000 0.000000
vt 0.499316 0.400000 0.000000
vt -0.000000 0.600000 0.000000
vt -0.000000 0.000000 0.000000
vt 0.499316 0.000000 0.000000
vt 0.000000 0.000000 0.000000
vt 1.000000 0.000000 0.000000
vt 0.000000 0.600000 0.000000
vt 1.000000 0.600000 0.000000
vt 0.000000 0.000000 0.000000
vt 0.100000 0.000000 0.000000
vt 0.000000 0.600000 0.000000
vt 0.100000 0.600000 0.000000
vt 0.000000 0.000000 0.000000
vt 1.400000 0.000000 0.000000
vt 0.000000 0.600000 0.000000
vt 1.400000 0.600000 0.000000
vt 0.000000 0.000000 0.000000
vt 1.100000 0.000000 0.000000
vt 0.000000 0.600000 0.000000
vt 1.100000 0.600000 0.000000
vt -0.450000 -0.600000 0.000000
vt -0.450000 -0.700000 0.000000
vt 0.450000 -0.240000 0.000000
vt 0.550000 -0.300000 0.000000
vt 0.450000 0.600000 0.000000
vt 0.550000 0.700000 0.000000
vt -0.550000 0.700000 0.000000
vt -0.550000 -0.700000 0.000000
vt -0.450000 0.600000 0.000000
vn 0.092848 0.037139 0.000000
vn 0.092848 0.037139 0.000000
vn 0.092848 0.037139 0.000000
vn 0.092848 0.037139 0.000000
vn -0.092848 -0.037139 0.000000
vn -0.092848 -0.037139 0.000000
vn -0.092848 -0.037139 0.000000
vn -0.092848 -0.037139 0.000000
vn 0.000000 0.000000 -0.100000
vn 0.000000 0.000000 -0.100000
vn 0.000000 0.000000 -0.100000
vn 0.000000 0.000000 -0.100000
vn 0.000000 0.000000 -0.100000
vn 0.000000 0.000000 -0.100000
vn 0.000000 0.000000 -0.100000
vn 0.000000 0.000000 -0.100000
vn 0.000000 0.000000 -0.100000
vn 0.000000 0.000000 -0.100000
vn 0.000000 0.000000 -0.100000
vn 0.000000 0.000000 -0.100000
vn 0.000000 0.000000 -0.100000
vn 0.000000 0.000000 -0.100000
vn 0.000000 0.000000 -0.100000
vn 0.000000 0.000000 -0.100000
vn 0.000000 0.000000 -0.100000
vn 0.037139 -0.092848 0.000000
vn 0.037139 -0.092848 0.000000
vn 0.037139 -0.092848 0.000000
vn 0.037139 -0.092848 0.000000
vn 0.037139 -0.092848 0.000000
vn 0.037139 -0.092848 0.000000
vn 0.037139 -0.092848 0.000000
vn 0.037139 -0.092848 0.000000
vn -0.100000 0.000000 0.000000
vn -0.100000 0.000000 0.000000
vn -0.100000 0.000000 0.000000
vn -0.100000 0.000000 0.000000
vn 0.000000 -0.100000 0.000000
vn 0.000000 -0.100000 0.000000
vn 0.000000 -0.100000 0.000000
vn 0.000000 -0.100000 0.000000
vn 0.100000 0.000000 0.000000
vn 0.100000 0.000000 0.000000
vn 0.100000 0.000000 0.000000
vn 0.100000 0.000000 0.000000
vn -0.037139 0.092848 0.000000
vn -0.037139 0.092848 0.000000
vn -0.037139 0.092848 0.000000
vn -0.037139 0.092848 0.000000
vn -0.037139 0.092848 0.000000
vn -0.037139 0.092848 0.000000
vn -0.037139 0.092848 0.000000
vn -0.037139 0.092848 0.000000
vn 0.100000 0.000000 0.000000
vn 0.100000 0.000000 0.000000
vn 0.100000 0.000000 0.000000
vn 0.100000 0.000000 0.000000
vn 0.000000 -0.100000 0.000000
vn 0.000000 -0.100000 0.000000
vn 0.000000 -0.100000 0.000000
vn 0.000000 -0.100000 0.000000
vn -0.100000 0.000000 0.000000
vn -0.100000 0.000000 0.000000
vn -0.100000 0.000000 0.000000
vn -0.100000 0.000000 0.000000
vn 0.000000 0.100000 0.000000
vn 0.000000 0.100000 0.000000
vn 0.000000 0.100000 0.000000
vn 0.000000 0.100000 0.000000
vn 0.000000 0.000000 0.100000
vn 0.000000 0.000000 0.100000
vn 0.000000 0.000000 0.100000
vn 0.000000 0.000000 0.100000
vn 0.000000 0.000000 0.100000
vn 0.000000 0.000000 0.100000
vn 0.000000 0.000000 0.100000
vn 0.000000 0.000000 0.100000
vn 0.000000 0.000000 0.100000
usemtl Steel_-_Satin
f 1/1/1 2/2/2 4/3/3
f 4/3/3 2/2/2 3/4/4
f 5/5/5 6/6/6 8/7/7
f 8/7/7 6/6/6 7/8/8
f 2/9/9 5/10/10 3/11/11
f 3/11/11 5/10/10 8/12/12
f 1/13/13 4/14/14 17/15/15
f 17/15/15 4/14/14 9/16/16
f 17/15/15 9/16/16 10/17/17
f 17/15/15 10/17/17 16/18/18
f 16/18/18 10/17/17 11/19/19
f 16/18/18 11/19/19 12/20/20
f 16/18/18 12/20/20 15/21/21
f 15/21/21 12/20/20 13/22/22
f 15/21/21 13/22/22 14/23/23
f 14/23/23 13/22/22 7/24/24
f 14/23/23 7/24/24 6/25/25
f 4/26/26 3/27/27 9/28/28
f 9/28/28 3/27/27 19/29/29
f 19/29/29 3/27/27 8/30/30
f 19/29/29 8/30/30 18/31/31
f 18/31/31 8/30/30 13/32/32
f 13/32/32 8/30/30 7/33/33
f 15/34/34 14/35/35 21/36/36
f 21/36/36 14/35/35 20/37/37
f 16/38/38 15/39/39 22/40/40
f 22/40/40 15/39/39 21/41/41
f 17/42/42 16/43/43 23/44/44
f 23/44/44 16/43/43 22/45/45
f 1/46/46 17/47/47 2/48/48
f 2/48/48 17/47/47 23/49/49
f 2/48/48 23/49/49 5/50/50
f 5/50/50 23/49/49 20/51/51
f 5/50/50 20/51/51 14/52/52
f 14/52/52 6/53/53 5/50/50
f 13/54/54 12/55/55 18/56/56
f 18/56/56 12/55/55 24/57/57
f 10/58/58 9/59/59 25/60/60
f 25/60/60 9/59/59 19/61/61
f 11/62/62 10/63/63 26/64/64
f 26/64/64 10/63/63 25/65/65
f 12/66/66 11/67/67 24/68/68
f 24/68/68 11/67/67 26/69/69
f 23/70/70 19/71/71 20/72/72
f 20/72/72 19/71/71 18/73/73
f 20/72/72 18/73/73 21/74/74
f 21/74/74 18/73/73 24/75/75
f 21/74/74 24/75/75 26/76/76
f 19/71/71 23/70/70 25/77/77
f 25/77/77 23/70/70 22/78/78
f 25/77/77 22/78/78 26/76/76
f 26/76/76 22/78/78 21/74/74
# 26 vertices
# 78 texture params
# 78 normals
# 52 facets

# 1 groups
